<svg xmlns="http://www.w3.org/2000/svg" width="480" height="360" viewBox="0 0 480 360">
  <defs>
    <radialGradient id="bg" cx="50%" cy="45%" r="75%">
      <stop offset="0" stop-color="#b5423a"/>
      <stop offset="1" stop-color="#2a0b09"/>
    </radialGradient>
    <radialGradient id="halo" cx="50%" cy="50%" r="50%">
      <stop offset="0" stop-color="#ffb199" stop-opacity="0.55"/>
      <stop offset="1" stop-color="#ffb199" stop-opacity="0"/>
    </radialGradient>
    <radialGradient id="vignette" cx="50%" cy="50%" r="70%">
      <stop offset="0.55" stop-color="#000" stop-opacity="0"/>
      <stop offset="1" stop-color="#000" stop-opacity="0.6"/>
    </radialGradient>
    <linearGradient id="metal" x1="0" y1="0" x2="0" y2="1">
      <stop offset="0" stop-color="#f4f6fa"/>
      <stop offset="0.55" stop-color="#b8c0cd"/>
      <stop offset="1" stop-color="#7d8697"/>
    </linearGradient>
    <linearGradient id="fireOuter" x1="0" y1="1" x2="0" y2="0">
      <stop offset="0" stop-color="#ff4d1a"/>
      <stop offset="0.6" stop-color="#ff9d4d"/>
      <stop offset="1" stop-color="#ffd23f"/>
    </linearGradient>
    <linearGradient id="fireInner" x1="0" y1="1" x2="0" y2="0">
      <stop offset="0" stop-color="#ffe066"/>
      <stop offset="1" stop-color="#fffbe6"/>
    </linearGradient>
    <linearGradient id="fireShield" x1="0" y1="0" x2="0" y2="1">
      <stop offset="0" stop-color="#ffd29a"/>
      <stop offset="1" stop-color="#c7612a"/>
    </linearGradient>
  </defs>
  <rect width="480" height="360" fill="url(#bg)"/>
  <circle cx="240" cy="180" r="170" fill="url(#halo)"/>
  <g opacity="0.12" stroke="#ffffff" stroke-width="2" fill="none">
    <circle cx="240" cy="180" r="120"/><circle cx="240" cy="180" r="150"/>
  </g>
  
    
  <g transform="translate(120 250) rotate(-125) scale(0.55)">
    <path d="M0 -70 C22 -38 44 -18 38 14 C33 42 16 58 0 58 C-16 58 -33 42 -38 14 C-42 -8 -22 -24 -12 -46 C-6 -30 2 -26 6 -20 C8 -38 4 -54 0 -70 Z" fill="url(#fireOuter)"/>
    <path d="M0 -24 C12 -6 20 6 18 22 C16 38 8 46 0 46 C-8 46 -16 38 -18 24 C-20 10 -10 0 -4 -10 C0 -2 4 0 6 2 C6 -8 4 -16 0 -24 Z" fill="url(#fireInner)"/>
  </g>
    
  <g transform="translate(165 215) rotate(-125) scale(0.7)">
    <path d="M0 -70 C22 -38 44 -18 38 14 C33 42 16 58 0 58 C-16 58 -33 42 -38 14 C-42 -8 -22 -24 -12 -46 C-6 -30 2 -26 6 -20 C8 -38 4 -54 0 -70 Z" fill="url(#fireOuter)"/>
    <path d="M0 -24 C12 -6 20 6 18 22 C16 38 8 46 0 46 C-8 46 -16 38 -18 24 C-20 10 -10 0 -4 -10 C0 -2 4 0 6 2 C6 -8 4 -16 0 -24 Z" fill="url(#fireInner)"/>
  </g>
    <g transform="translate(260 170) rotate(-40)">
      <rect x="-150" y="-7" width="230" height="14" rx="6" fill="#7a4b2a" stroke="#1b1f2c" stroke-width="5"/>
      <path d="M-150 -7 L-185 -32 L-160 0 L-185 32 L-150 7 Z" fill="#ff9d4d" stroke="#1b1f2c" stroke-width="5" stroke-linejoin="round"/>
      <path d="M80 -26 L140 0 L80 26 L92 0 Z" fill="url(#metal)" stroke="#1b1f2c" stroke-width="6" stroke-linejoin="round"/>
    </g>
    <circle cx="90" cy="300" r="7" fill="#ffe9a8"/><circle cx="210" cy="280" r="5" fill="#ffe9a8"/><circle cx="60" cy="230" r="5" fill="#ffe9a8"/><circle cx="400" cy="130" r="6" fill="#ffe9a8"/>
  <rect width="480" height="360" fill="url(#vignette)"/>
</svg>
